<?xml version="1.0" encoding="UTF-8"?>
<svg width="329px" height="104px" viewBox="0 0 329 104" version="1.1" xmlns="http://www.w3.org/2000/svg" xmlns:xlink="http://www.w3.org/1999/xlink">
    <title>Bypatrioten_logo</title>
    <defs>
        <polygon id="path-1" points="0 0 16.517505 0 16.517505 56.5680075 0 56.5680075"></polygon>
        <polygon id="path-3" points="2.84217094e-14 0 21.9310103 0 21.9310103 59.2574 2.84217094e-14 59.2574"></polygon>
    </defs>
    <g id="Bypatrioten_logo" stroke="none" stroke-width="1" fill="none" fill-rule="evenodd">
        <rect fill="#0D4C60" x="0" y="0" width="329" height="104"></rect>
        <g id="Group-25" transform="translate(46.000000, 22.000000)">
            <g id="Group-3" transform="translate(0.000000, 2.320197)">
                <mask id="mask-2" fill="white">
                    <use xlink:href="#path-1"></use>
                </mask>
                <g id="Clip-2"></g>
                <path d="M10.4775,49.3250027 C11.9185,47.4340027 12.6385,45.1700027 12.637501,42.5320027 C12.6355,40.2440027 12.4475,38.1410027 12.0735,36.2260027 C11.6985,34.3120027 11.2125,32.8570027 10.6155,31.8620027 C10.0665,30.9180027 9.5185,30.1210027 8.9715,29.4740027 C8.4235,28.8290027 7.9505,28.4050027 7.5525,28.2070027 L6.9555,27.9830027 L4.2695,27.9850027 C4.5205,33.7070027 4.6515,41.9410027 4.6585,52.6870027 C7.0955,52.3390027 9.0345,51.2180027 10.4775,49.3250027 M7.6225,20.3710027 C8.3675,18.9770027 9.0625,17.2850027 9.7075,15.2940027 C9.8565,14.7470027 10.1045,14.0510027 10.4535,13.2040027 L10.4515,10.5930027 C10.4505,9.09900268 9.9015,7.65700268 8.8065,6.26400268 C7.7105,4.87300268 6.4665,4.17600268 5.0735,4.17700161 C4.3765,4.17800268 4.0295,4.95000268 4.03049784,6.49100268 C4.0325,9.77500268 4.0835,12.7120027 4.1855,15.2980027 L4.3405,23.5820027 C5.6335,23.2820027 6.7275,22.2120027 7.6225,20.3710027 M0.1815,54.7060027 L0.3255,45.5260027 L0.4685,36.3460027 C0.4655,33.0130027 0.3885,27.9640027 0.2335,21.1960027 C0.0805,14.4800027 0.0025,9.43000268 -0.000506048256,6.04700268 L-0.000506048256,5.59800268 C-0.0015,4.30500268 0.1215,3.11100268 0.3705,2.01600268 C0.6675,0.672002681 1.4625,0.00100268096 2.7575,0 C6.2395,-0.00199731904 9.0015,1.11500268 11.0435,3.35200268 C13.0845,5.59000268 14.1065,8.55000268 14.1095,12.2310027 C14.1105,14.4710027 13.5155,16.8100027 12.3235,19.2470027 C11.1305,21.6860027 9.7135,23.5040027 8.0725,24.6980027 C10.9585,26.6370027 13.0875,29.1360027 14.4585,32.1950027 C15.8285,35.2540027 16.5155,38.6250027 16.517505,42.3060027 C16.5195,44.0490027 15.9235,46.2130027 14.7305,48.8010027 C13.2895,51.8870027 11.3255,54.1000027 8.8395,55.4460027 C7.3475,56.1930027 5.7065,56.5670027 3.9155,56.5680075 L3.6165,56.5680075 C1.3275,56.5700027 0.1825,55.9500027 0.1815,54.7060027" id="Fill-1" fill="#FFFFFF" mask="url(#mask-2)"></path>
            </g>
            <path d="M27.5347,58.6491 C27.1617,58.3001 26.9737,57.8781 26.9737,57.3801 L27.1187,50.1411 C27.2657,46.9081 27.3387,44.4951 27.3377,42.9021 C27.3367,41.4601 27.1117,39.3201 26.6617,36.4851 C26.1617,33.6991 25.9117,31.5351 25.9107,29.9921 C25.9097,28.1021 25.6347,25.9371 25.0857,23.5001 C24.5357,21.0631 23.8387,18.7241 22.9917,16.4861 C22.1937,14.3481 21.5197,12.0461 20.9717,9.5851 C20.4217,7.1221 20.1477,4.9701 20.1467,3.1281 C20.1467,2.7811 20.3447,2.4831 20.7427,2.2331 C21.1407,1.9841 21.5637,1.85909869 22.0117,1.85909869 C22.5587,1.8581 23.0807,2.4301 23.5797,3.5751 C24.1777,4.8681 24.7497,6.6831 25.2997,9.0221 C25.8487,11.3601 26.1717,12.7531 26.2727,13.2001 L27.2467,18.3481 L27.9947,21.6321 C28.1437,20.8371 28.2667,19.7931 28.3657,18.4971 C28.6617,14.3681 29.0327,10.9351 29.4787,8.1981 C29.8257,6.3061 30.2227,4.8641 30.6697,3.8691 C31.1657,2.7741 31.7627,2.2251 32.4597,2.2251 C33.8037,2.2241 34.4747,2.4731 34.475705,2.9691 C34.4777,5.8061 33.8837,9.9861 32.6927,15.5081 C31.5027,21.0331 30.9087,25.2381 30.9097,28.1241 L30.7617,29.3171 C30.6617,30.0641 30.6377,30.5111 30.6877,30.6611 L30.6887,31.8551 C30.6907,33.9951 30.7667,37.2781 30.9187,41.7061 L31.0757,51.6311 L31.2247,53.3481 L31.3757,55.1381 L31.3767,57.0041 C31.3777,57.6011 31.1287,58.1131 30.6317,58.5351 C30.1347,58.9581 29.5367,59.1701 28.8417,59.1701 C28.3437,59.1701 27.9087,58.9971 27.5347,58.6491" id="Fill-4" fill="#FFFFFF"></path>
            <path d="M51.8403,22.9216 C52.7593,20.9066 53.2183,18.6296 53.2163065,16.0926 L53.2163065,16.0176 C53.2153,14.8736 53.0903,13.4316 52.8403,11.6906 C52.6913,11.0926 52.4163,10.4956 52.0183,9.8996 C51.6193,9.3026 51.3953,8.9546 51.3463,8.8556 C50.9973,8.3586 50.0763,7.5876 48.5833,6.5436 L46.6423,5.1266 C46.6443,7.6636 46.7953,11.5946 47.0973,16.9176 L47.5533,28.7086 C49.4923,26.8676 50.9213,24.9386 51.8403,22.9216 M44.5503,57.9286 C44.2263,57.4566 44.0643,56.8726 44.0643,56.1756 L44.2053,43.6376 C44.3503,37.5676 44.4213,32.8656 44.4193,29.5316 C44.4113,17.9396 43.7583,9.0596 42.4613,2.8906 C43.2063,1.7456 44.1513,1.1726 45.2963,1.17159817 C47.1363,1.1706 48.8153,1.5796 50.3343,2.3996 C51.8513,3.2196 53.1083,4.3256 54.1053,5.7186 C56.0483,8.6026 57.0203,11.8366 57.0223085,15.4186 C57.0253,19.1506 56.2313,22.4846 54.6413,25.4196 C53.0503,28.3586 50.7373,30.6476 47.7043,32.2906 L47.8593,39.8286 L48.0113,43.7836 C48.0603,44.6306 48.0873,45.8496 48.0883,47.4416 C48.2393,50.7756 48.3163,53.4856 48.3173,55.5756 C48.3183,56.5216 48.1193,57.2676 47.7213,57.8146 C47.3233,58.3606 46.7023,58.6366032 45.8563,58.6366032 C45.3083,58.6376 44.8733,58.4006 44.5503,57.9286" id="Fill-6" fill="#FFFFFF"></path>
            <path d="M74.2056,41.9753 C74.0546,39.7873 73.8036,37.0753 73.4536,33.8413 C72.3006,22.5983 71.7256,15.7073 71.7236,13.1693 L71.7226,12.5733 C71.2256,13.0713 70.5416,15.3243 69.6756,19.3283 C68.8066,23.3343 68.0016,27.6253 67.2576,32.2043 C66.5146,36.7823 66.1186,39.8173 66.0706,41.3093 C68.1606,41.9053 70.3736,42.2023 72.7126,42.20031 C73.1106,42.20031 73.6086,42.1243 74.2056,41.9753 M74.8506,57.7963 C74.4766,57.4983 74.2896,57.0013 74.2886,56.3043 L74.2826,46.5283 C73.6356,46.0793 72.4166,45.6833 70.6246,45.3353 C68.8336,44.9903 67.1416,44.7673 65.5496,44.6673 C65.0026,45.7123 64.6056,46.9823 64.3586,48.4753 L64.0606,49.9673 C64.0106,50.3163 63.8626,51.0873 63.6146,52.2813 C63.3656,53.4753 63.0936,54.5093 62.7956,55.3793 C62.4976,56.2503 62.1996,56.9353 61.9016,57.4313 C60.0106,57.4333 58.9156,56.9383 58.6166,55.9423 C59.1636,55.1463 59.7826,52.8063 60.4776,48.9243 L62.9316,35.2663 C64.0206,28.7983 65.0246,23.2743 65.9426,18.6963 C66.8596,14.1193 67.8406,10.2873 68.8836,7.2023 C70.0246,3.7673 71.1186,2.0493 72.1636,2.0483 C73.2086,2.0483 74.0036,2.2473 74.5526,2.6453 C74.5536,4.6353 75.0286,9.4353 75.9796,17.0473 C76.9796,24.5093 77.4806,29.6103 77.4826,32.3463 C77.4846,34.9843 77.7596,38.7643 78.3106,43.6893 C78.8106,48.7143 79.0626,52.7193 79.0646036,55.7043 C79.0666,57.3963 78.2466,58.2423 76.6046,58.243305 C75.8076,58.2443 75.2236,58.0943 74.8506,57.7963" id="Fill-8" fill="#FFFFFF"></path>
            <path d="M91.7905,57.6735 C91.3665,56.9525 91.1555,56.0695 91.1545,55.0245 C91.1535,53.3825 91.2515,51.3665 91.4485,48.9795 L91.5975,47.0385 L91.7435,43.0825 C91.7425,41.3425 91.5645,37.4615 91.2135,31.4415 C90.8605,25.4225 90.6845,21.5415 90.6835,19.7995 C90.6835,19.6505 90.6945,19.3635 90.7195,18.9415 C90.7435,18.5195 90.7565,17.8595 90.7555,16.9635 C90.8045,15.9685 90.8295,14.7495 90.8285,13.3065 C90.8255,9.6755 90.5745,7.3615 90.0775,6.3655 C89.7785,6.3655 89.1315,6.4415 88.1365,6.5905 L86.0475,6.7415 C85.3995,6.7415 84.8275,6.5565 84.3305,6.1835 C83.8325,5.8105 83.5834987,5.3255 83.5834987,4.7295 C83.5825,4.1315 84.1795,3.6085 85.3735,3.1595 C87.1135,2.5615 90.0745,2.1375 94.2535,1.8855 C95.9435,1.7845 96.9645,1.7345 97.3125,1.7345 C97.9105,1.7345 98.4575,1.9325 98.9555,2.3295 C99.4525,2.7285 99.7025035,3.2255 99.7025035,3.8225 C99.7035,4.4195 99.4915,4.9045 99.0695,5.2775 C98.6465,5.6515 98.1115,5.8385 97.4655,5.8385 L96.1215,5.7655 C95.7235,5.7155 95.2755,5.6915 94.7785,5.6915 L94.0325,5.6915 C94.3815,9.0745 94.5595,12.1355 94.5605,14.8705 L94.4895,19.6475 C94.4395,21.0905 94.4165,22.7065 94.4175,24.4975 C94.4195,26.8865 94.5205,29.7475 94.7215,33.0805 C94.9735,37.2105 95.1005,40.0705 95.1015,41.6625 C95.1025,43.5545 95.2035,45.7935 95.4035,48.3785 C95.6035,51.0165 95.7055,53.2555 95.7075,55.0955 C95.7085,57.5335 94.9875,58.7535 93.5455,58.7545 C92.7985,58.7545 92.2135,58.3945 91.7905,57.6735" id="Fill-10" fill="#FFFFFF"></path>
            <path d="M113.52,20.6794 L114.636,14.2604 C114.684,14.0114 114.709,13.6624 114.709,13.2154 C114.708,11.7734 114.433,10.1064 113.885,8.2154 C113.586,7.3204 113.199,6.5624 112.727,5.9414 C112.252,5.3194 111.768,4.9834 111.271,4.9344 L111.126,12.3974 C110.979,15.7314 110.906,18.3194 110.908,20.1584 C110.909,21.9014 110.935,23.0444 110.984,23.5914 C111.68,22.8944 112.525,21.9244 113.52,20.6794 M118.544,56.9474 L118.544,56.7234 C118.394,54.0864 117.944,51.1514 117.195,47.9174 C116.447,44.6844 115.349,40.7804 113.904,36.2024 C112.807,32.7704 111.884,29.6864 111.136,26.9504 L111.156,56.3544 C111.156,57.1514 111.019,57.7354 110.747,58.1084 C110.473,58.4814 109.938,58.6694 109.143,58.6694 C108.545,58.6694 108.072,58.4834 107.724,58.1104 C107.375,57.7374 107.201,57.2524 107.201,56.6554 L107.2,56.0584 L107.335,34.1174 C107.43,27.6494 107.475,20.3604 107.47,12.2494 L107.463,3.0704 C107.463,2.4734 107.586,2.0634 107.836,1.8384 C108.084,1.6154 108.606,1.50139685 109.403,1.50139685 C110.645,1.5004 111.791,1.7374 112.836,2.2084 C113.881,2.6814 114.777,3.3394 115.524,4.1854 C117.067,5.9264 118.064,8.0144 118.513,10.4514 C118.712,11.4474 118.813,12.5904 118.814,13.8834 C118.815,14.6304 118.752,15.4504 118.629,16.3474 C118.505,17.2424 118.418,17.8164 118.37,18.0644 C118.27,18.5624 118.046,19.3084 117.699,20.3034 C117.351,21.2994 117.128,21.9464 117.029,22.2444 L116.134,24.3344 L115.39,26.2754 C115.44,28.0674 115.753,30.3314 116.327,33.0664 C116.9,35.8024 117.537,38.3394 118.235,40.6774 C118.733,42.3184 119.631,45.0554 120.927,48.8844 L123.09601,55.4504 L123.09601,55.5994 C123.097,56.4464 123.023,57.1674 122.874,57.7644 C122.725,58.5604 122.203,58.9584 121.308,58.9594 C120.362,58.9594 119.441,58.2884 118.544,56.9474" id="Fill-12" fill="#FFFFFF"></path>
            <path d="M127.3491,55.8962 C127.3481,54.7022 128.0941,54.1042 129.5871,54.1032 L130.4821,54.1022 C130.6811,54.1522 130.9041,54.1762 131.1541,54.1762 C131.5521,54.1762 131.8371,54.0522 132.0121,53.8022 C132.1861,53.5542 132.2731,53.1062 132.2721,52.4592 C132.2691,48.2312 132.0161,42.4582 131.5141,35.1462 C131.0611,27.5342 130.8341,21.7872 130.8311,17.9062 C130.8301,16.5142 130.8541,15.2452 130.9031,14.1002 L130.9751,10.2932 C130.9741,8.6522 130.8991,7.2842 130.7491,6.1892 C130.2011,6.3892 129.6291,6.4892 129.0331,6.4892 C127.8871,6.4902 127.315098,5.8932 127.315098,4.7002 C127.3141,4.1022 127.6741,3.5792 128.3951,3.1312 C129.1161,2.6822 130.0491,2.3592 131.1941,2.1592 C133.2841,1.8092 135.0481,1.6332 136.4921,1.6322 C137.0891,1.6322 137.5991,1.8322 138.0221,2.2292 C138.4451,2.6272 138.6571,3.1002 138.6581,3.6472 C138.6581,4.1952 138.4961,4.6672 138.1741,5.0652 C137.8501,5.4632 137.4391,5.6632 136.9431,5.6632 C136.6441,5.6632 136.3951,5.6382 136.1971,5.5882 L135.5991,5.5892 C135.1011,5.5892 134.7411,5.7012 134.5171,5.9262 C134.2941,6.1502 134.1821,6.5602 134.1821,7.1582 C134.1861,12.4312 134.5141,19.6952 135.1671,28.9492 C135.7711,38.6502 136.0741,45.9402 136.0781,50.8152 L136.0791,53.6512 C136.4271,53.6012 136.9251,53.5762 137.5721,53.5762 C139.6611,53.5742 140.7071,54.4442 140.7081,56.1852 L140.7081,56.6322 L138.8441,57.9032 C138.7931,57.9032 138.6441,57.9162 138.3961,57.9412 C138.1461,57.9662 137.6501,57.9792 136.9031,57.9792 C135.2111,58.0802 134.1661,58.130209 133.7691,58.130209 C129.4891,58.1332 127.3501,57.3882 127.3491,55.8962" id="Fill-14" fill="#FFFFFF"></path>
            <path d="M160.7061,53.4108 C161.3021,51.7678 161.7361,49.7648 162.0081,47.4018 C162.2801,45.0398 162.5151,42.3638 162.7121,39.3788 C162.8101,38.0848 162.8591,36.4188 162.858115,34.3778 L162.7791,27.5128 C162.6771,24.8248 162.3761,21.4678 161.8761,17.4378 C161.4751,14.0048 160.7271,10.9718 159.6321,8.3338 C159.1331,7.0918 158.5101,6.1218 157.7641,5.4258 C157.0171,4.7288 156.2201,4.3818 155.3751,4.3818 C154.1301,4.3828 153.2111,5.3528 152.6151,7.2938 C151.8711,9.3358 151.3741,11.5748 151.1271,14.0118 C150.8311,16.6488 150.6571,19.1618 150.6101,21.5508 L150.5371,24.0138 C150.4871,24.7108 150.4631,25.6548 150.46407,26.8488 L150.46407,27.1478 C150.4671,30.4808 150.8171,34.5858 151.5181,39.4608 C152.3171,46.0778 153.4901,50.7788 155.0351,53.5638 C156.0301,55.3058 157.0761,56.1748 158.1711,56.1738009 C159.1651,56.1738009 160.0101,55.2518 160.7061,53.4108 M154.3671,58.9368 C153.2711,58.0428 152.3241,56.8238 151.5281,55.2828 C150.0821,52.5968 149.0111,48.9168 148.3111,44.2388 C147.8111,41.0068 147.4351,37.2748 147.1851,33.0458 L147.1071,29.0908 L147.1041,25.0598 C147.0541,23.7658 147.0281,22.1998 147.027076,20.3578 C147.0251,17.3728 147.1461,14.7358 147.3941,12.4468 C147.5911,10.0588 148.0881,7.6958 148.8821,5.3558 C149.6771,3.3158 150.8211,1.8728 152.3121,1.0248 C153.2081,0.6278 154.1031,0.427797126 154.9991,0.427797126 C157.6361,0.4258 159.7261,1.4678 161.2701,3.5568 C162.9621,5.8948 164.0841,8.5058 164.6341,11.3908 C165.4321,14.8728 165.8811,18.2068 165.9831,21.3898 C166.1841,24.9238 166.2871,28.2568 166.2891,31.3908 L166.2921,35.6448 C166.2921,36.4918 166.1681,38.0828 165.9221,40.4218 C165.7241,42.2628 165.6251,43.8298 165.6261,45.1228 L165.6261,45.4218 C165.3291,46.8158 165.1811,48.4578 165.1821,50.3478 C165.1831,51.7418 164.8861,53.1838 164.2891,54.6768 C163.6931,56.1708 162.8481,57.4388 161.7541,58.4848 C160.6611,59.6798 159.4171,60.2778 158.0241,60.2788 C156.6811,60.2788 155.4611,59.8318 154.3671,58.9368" id="Fill-16" fill="#FFFFFF"></path>
            <path d="M178.583,57.6149 C178.159,56.8949 177.948,56.0109 177.947,54.9669 C177.946,53.3249 178.044,51.3089 178.241,48.9219 L178.39,46.9809 L178.536,43.0239 C178.535,41.2839 178.357,37.4039 178.006,31.3839 C177.653,25.3639 177.477,21.4829 177.476,19.7409 C177.476,19.5919 177.487,19.3049 177.512,18.8829 C177.536,18.4609 177.549,17.8009 177.548,16.9049 C177.597,15.9099 177.622,14.6909 177.621,13.2479 C177.618,9.6169 177.367,7.3029 176.87,6.3079 C176.571,6.3079 175.924,6.3829 174.929,6.5329 L172.84,6.6829 C172.192,6.6839 171.62,6.4979 171.123,6.1259 C170.625,5.7529 170.375999,5.2669 170.375999,4.6709 C170.375,4.0729 170.972,3.5509 172.166,3.1019 C173.906,2.5039 176.867,2.0799 181.046,1.8279 C182.736,1.7269 183.757,1.67689625 184.105,1.67689625 C184.703,1.6759 185.25,1.8749 185.748,2.2709 C186.245,2.6699 186.495004,3.1669 186.495004,3.7639 C186.496,4.3609 186.284,4.8459 185.862,5.2189 C185.439,5.5939 184.904,5.7799 184.258,5.7809 L182.914,5.7069 C182.516,5.6579 182.068,5.6329 181.571,5.6329 L180.825,5.6339 C181.174,9.0169 181.352,12.0769 181.353,14.8119 L181.282,19.5899 C181.232,21.0329 181.209,22.6489 181.21,24.4399 C181.212,26.8289 181.313,29.6899 181.514,33.0219 C181.766,37.1519 181.893,40.0119 181.894,41.6039 C181.895,43.4959 181.996,45.7349 182.196,48.3209 C182.396,50.9589 182.498,53.1979 182.5,55.0379 C182.501,57.4759 181.78,58.6949 180.338,58.6959021 C179.591,58.6969 179.006,58.3359 178.583,57.6149" id="Fill-18" fill="#FFFFFF"></path>
            <path d="M196.084,58.237 C195.237,57.99 194.815,57.294 194.814,56.149 L194.785,12.789 C194.785,11.943 194.634,10.674 194.334,8.983 C193.984,7.441 193.811,6.173 193.81,5.177 L193.81,4.953 C194.654,3.56 195.275,2.664 195.673,2.265 C196.369,2.264 197.29,2.166 198.435,1.965 C199.48,1.765 200.399,1.66499684 201.195,1.66499684 C201.991,1.664 202.763,1.9 203.509,2.372 C204.256,2.845 204.63,3.405 204.63,4.05 C204.631,5.544 203.487,6.29 201.199,6.292 L200.154,6.293 C199.855,6.244 199.507,6.217 199.109,6.217 C198.661,6.218 198.387,6.245 198.288,6.294 C198.289,7.986 198.39,10.025 198.591,12.413 L198.741,14.503 L198.894,18.606 C198.894,19.552 198.82,20.996 198.672,22.936 L198.526,27.116 L199.571,26.89 C200.565,26.591 201.386,26.442 202.033,26.441 C202.58,26.441 203.078,26.653 203.526,27.074 C203.974,27.498 204.199,27.983 204.199,28.53 C204.199,29.127 204.013,29.662 203.64,30.134 C203.267,30.607 202.807,30.844 202.26,30.844 L201.364,30.77 L200.394,30.77 C199.647,30.771 199.126,30.946 198.827,31.295 L198.843,54.355 L203.021,54.129 C205.857,54.127 207.276,54.773 207.277,56.066 L207.277,56.365 C206.979,56.962 206.432,57.447 205.636,57.821 C204.84,58.194 204.069,58.43 203.323,58.531 L200.861,58.608 L198.547,58.61 C197.602,58.61 196.78,58.486 196.084,58.237" id="Fill-20" fill="#FFFFFF"></path>
            <g id="Group-24" transform="translate(214.566690, 0.000000)">
                <mask id="mask-4" fill="white">
                    <use xlink:href="#path-3"></use>
                </mask>
                <g id="Clip-23"></g>
                <path d="M12.7780103,43.8874 C9.28701027,31.9004 6.27001027,20.8804 3.72601027,10.8324 L3.74201027,35.3114 C3.74301027,37.4014 3.94401027,40.9584 4.34601027,45.9834 C4.69701027,51.4564 4.87501027,54.9884 4.87601027,56.5794 C4.87601027,57.0284 4.60201027,57.4144 4.05501027,57.7384 C3.50801027,58.0624 2.88601027,58.2234 2.19001027,58.2234 C1.14501027,58.2244 0.622010273,57.8264 0.622010273,57.0314 L0.770010273,54.8664 C0.868010273,53.2754 0.918010273,52.2304 0.917010273,51.7324 C0.916010273,49.0954 0.763010273,44.9154 0.461010273,39.1944 C0.158010273,33.3734 0.00701027301,29.8414 0.00601027301,28.5974 L2.84217094e-14,19.0444 C-0.000989726991,17.5024 0.071010273,15.2134 0.219010273,12.1784 C0.415010273,9.5404 0.514010273,7.2514 0.512010273,5.3114 L0.512010273,4.8644 C0.510010273,2.3764 1.05701027,1.1324 2.15201027,1.1314 C2.79801027,1.1314 3.61901027,2.2254 4.61701027,4.4134 C6.26101027,7.9944 8.35501027,14.4114 10.8990103,23.6634 C12.3450103,29.0364 14.0410103,35.9514 15.9870103,44.4084 C15.9370103,44.2094 16.3360103,45.9264 17.1850103,49.5564 L17.2600103,49.9304 C17.2570103,45.1044 17.3030103,40.7764 17.4010103,36.9444 L17.5410103,23.9584 L17.5270103,1.8674 C17.7240103,0.6244 18.5200103,0.0004 19.9130103,-0.000600771605 C21.2570103,-0.0016 21.9290103,0.9694 21.9300103,2.9094 L21.9310103,3.3574 C21.6320103,3.9544 21.4840103,4.6764 21.4840103,5.5224 C21.4860103,8.5574 21.4150103,13.1344 21.2700103,19.2534 C21.1240103,25.4234 21.0520103,30.0504 21.0550103,33.1354 L21.0700103,55.8974 C21.0700103,56.6944 20.8590103,57.4524 20.4370103,58.1744 C20.0140103,58.8954 19.5050103,59.2564 18.9080103,59.2574 C17.9120103,59.2574 15.8690103,54.1354 12.7780103,43.8874" id="Fill-22" fill="#FFFFFF" mask="url(#mask-4)"></path>
            </g>
        </g>
    </g>
</svg>